<svg width="256" height="256" viewBox="0 0 256 256" fill="none" xmlns="http://www.w3.org/2000/svg">
<rect width="256" height="256" fill="#1068E3"/>
<rect x="53" y="53" width="151" height="151" fill="#0259E2"/>
<path d="M76.0682 163V93.1818H90.8295V150.83H120.761V163H76.0682ZM130.537 163V93.1818H158.082C163.355 93.1818 167.855 94.125 171.582 96.0114C175.332 97.875 178.185 100.523 180.139 103.955C182.116 107.364 183.105 111.375 183.105 115.989C183.105 120.625 182.105 124.614 180.105 127.955C178.105 131.273 175.207 133.818 171.412 135.591C167.639 137.364 163.071 138.25 157.707 138.25H139.264V126.386H155.321C158.139 126.386 160.48 126 162.344 125.227C164.207 124.455 165.594 123.295 166.503 121.75C167.435 120.205 167.901 118.284 167.901 115.989C167.901 113.67 167.435 111.716 166.503 110.125C165.594 108.534 164.196 107.33 162.31 106.511C160.446 105.67 158.094 105.25 155.253 105.25H145.298V163H130.537ZM168.241 131.227L185.594 163H169.298L152.321 131.227H168.241Z" fill="#FBFBFB"/>
</svg>
